<!-- icon666.com - MILLIONS vector ICONS FREE --><svg version="1.1" id="Capa_1" xmlns="http://www.w3.org/2000/svg" xmlns:xlink="http://www.w3.org/1999/xlink" x="0px" y="0px" viewBox="0 0 490.629 490.629" style="enable-background:new 0 0 490.629 490.629;" xml:space="preserve"><g><g><circle cx="360.835" cy="90.415" r="17.707" fill="#000000" style="fill: rgb(0, 0, 0);"></circle></g></g><g><g><path d="M439.128,53.295L335.021,25.562l-68.693-24.96c-5.56-1.946-11.646,0.983-13.592,6.543c-0.226,0.646-0.39,1.313-0.488,1.99 c-2.872,16.516-2.872,33.404,0,49.92h-8.32c-5.891,0-10.667,4.776-10.667,10.667c0,5.891,4.776,10.667,10.667,10.667h24.747 l10.24,5.973l-1.707,2.987h-52.053c-5.891,0-10.667,4.776-10.667,10.667c0,5.891,4.776,10.667,10.667,10.667h39.04l-5.12,8.747 h-52.053c-5.891,0-10.667,4.776-10.667,10.667c0,5.891,4.776,10.667,10.667,10.667h40.107l-5.12,8.747h-53.12 c-5.891,0-10.667,4.776-10.667,10.667s4.776,10.667,10.667,10.667h40.96l-5.12,8.747h-53.76c-5.891,0-10.667,4.776-10.667,10.667 c0,5.891,4.776,10.667,10.667,10.667h42.667l-5.973,10.24H100.995c-2.203-0.121-4.411-0.121-6.613,0h-1.707 c-1.476-0.324-3.004-0.324-4.48,0c-5.033,1.086-9.907,2.806-14.507,5.12h-2.56c-18.716,0.013-34.084-14.79-34.773-33.493 c0-5.891-4.776-10.667-10.667-10.667c-5.891,0-10.667,4.776-10.667,10.667c0.055,23.201,14.385,43.974,36.053,52.267 c-8.604,10.714-13.34,24.019-13.44,37.76v178.987c0,21.443,17.383,38.827,38.826,38.827c0.071,0,0.143,0,0.214-0.001 c12.587,0,38.613,0,38.613-27.093v-18.773c0-20.265,16.428-36.693,36.693-36.693h121.6c20.383,0.117,36.811,16.736,36.693,37.119 c0,0,0,0.001,0,0.001v6.613c0,21.36,17.253,38.709,38.613,38.827c12.587,0,38.827,0,38.827-27.093v-291.84h49.28 c21.326,0,38.613-17.288,38.613-38.613V90.415C474.968,68.229,458.328,59.909,439.128,53.295z M101.848,232.495h100.48v32 c-0.466,24.963-20.9,44.921-45.867,44.8h-8.96c-25.214,0-45.653-20.44-45.653-45.653V232.495z M453.635,133.295 c0,9.543-7.737,17.28-17.28,17.28h-81.707c-5.891,0.006-10.662,4.786-10.656,10.677c0.006,5.883,4.773,10.651,10.656,10.656 h11.947v291.627c0,4.053,0,5.76-17.493,5.76c-9.661-0.115-17.399-8.04-17.284-17.7c0.001-0.073,0.002-0.147,0.004-0.22v-6.613 c0-32.047-25.979-58.027-58.027-58.027H151.981c-32.047,0-58.027,25.979-58.027,58.027v18.773c0,4.053,0,5.76-17.28,5.76 c-9.661,0-17.493-7.832-17.493-17.493V272.815c0.01-14.843,8.217-28.466,21.333-35.413v27.093 c0.581,36.613,30.369,66.022,66.987,66.133h8.96c36.619,0.007,66.503-29.307,67.2-65.92v-40.747l78.293-136.96 c2.913-5.071,1.2-11.541-3.84-14.507l-24.107-14.08c-3.514-10.947-4.391-22.57-2.56-33.92l57.173,21.333l104.107,27.733 c18.773,6.827,21.333,10.88,21.333,17.92L453.635,133.295z" fill="#000000" style="fill: rgb(0, 0, 0);"></path></g></g></svg>