<?xml version="1.0" standalone="no"?>
<!DOCTYPE svg PUBLIC "-//W3C//DTD SVG 20010904//EN"
 "http://www.w3.org/TR/2001/REC-SVG-20010904/DTD/svg10.dtd">
<svg version="1.0" xmlns="http://www.w3.org/2000/svg"
 width="315.000000pt" height="431.000000pt" viewBox="0 0 315.000000 431.000000"
 preserveAspectRatio="xMidYMid meet">

<g transform="translate(0.000000,431.000000) scale(0.100000,-0.100000)"
fill="#FF8C00" stroke="none">
<path d="M1213 4260 c-67 -30 -130 -102 -151 -170 -14 -51 -20 -59 -46 -64
-20 -4 -77 -54 -185 -160 -87 -85 -178 -165 -206 -181 -182 -102 -350 -247
-436 -378 -66 -101 -87 -150 -129 -313 -40 -153 -41 -295 -6 -470 30 -143 29
-143 82 -224 74 -115 255 -271 332 -286 29 -6 32 -10 32 -43 0 -49 28 -101 70
-129 34 -23 39 -24 180 -18 117 5 155 3 195 -9 71 -23 231 -31 281 -15 96 31
159 121 172 248 8 68 10 72 67 136 111 124 153 178 206 267 29 49 58 94 65
100 26 22 133 -88 244 -251 34 -48 93 -125 133 -171 l71 -83 1 -180 1 -181 35
-90 c24 -62 71 -146 150 -265 64 -96 157 -249 209 -340 51 -91 110 -192 130
-225 59 -94 115 -195 225 -406 56 -108 121 -221 143 -252 23 -30 44 -67 48
-81 3 -14 10 -26 15 -26 5 0 9 515 9 1226 l0 1226 -102 108 c-57 59 -130 129
-163 155 -86 68 -270 250 -318 315 -67 89 -135 157 -257 255 -63 51 -155 128
-203 171 -49 44 -107 94 -130 112 -23 18 -59 49 -81 68 -21 20 -48 40 -60 45
-18 9 -126 173 -126 192 0 4 18 39 40 78 22 39 43 82 46 95 3 13 12 28 20 35
20 17 17 57 -5 69 -11 5 -71 10 -135 10 -67 0 -117 4 -121 10 -14 23 -114 89
-151 99 -60 17 -144 13 -191 -9z m316 -205 c55 -28 91 -180 39 -160 -9 4 -18
18 -21 33 -4 15 -15 42 -26 60 -23 35 -50 41 -91 17 -49 -28 -54 -12 -11 34
32 35 65 40 110 16z m-219 -1464 c-1 -41 -52 -160 -98 -229 -100 -146 -253
-276 -366 -311 -69 -21 -186 -22 -211 -1 -32 26 -10 55 31 39 32 -11 168 7
211 29 161 83 352 313 379 458 4 21 11 42 17 46 18 12 37 -4 37 -31z"/>
</g>
</svg>
